# xmcd
#
# Track frame offsets:
#	150
#	22375
#	37830
#	59563
#	88368
#	112778
#	134783
#	148313
#	160573
#	174215
#	192515
#	240298
#
# Disc length: 3471 seconds
#
# Revision: 0
# Processed by: cddbd v1.5.2PL0 Copyright (c) Steve Scherf et al.
# Submitted via: EasyCDDAExtractor 10.0.3.1
#
DISCID=a70d8d0c
DTITLE=Ric Slagle - Horntoad
DYEAR=1900
DGENRE=
TTITLE0=Back At The Chickenshack
TTITLE1=Weaver Of Dreams
TTITLE2=Cinco De Mayo
TTITLE3=The Fever
TTITLE4=Georgia On My Mind
TTITLE5=Horn Alone
TTITLE6=As Tears Go By
TTITLE7=Catrina
TTITLE8=All The Way
TTITLE9=Poor Fool
TTITLE10=Summertime
TTITLE11=Mr. Bojangles
EXTD=
EXTT0=
EXTT1=
EXTT2=
EXTT3=
EXTT4=
EXTT5=
EXTT6=
EXTT7=
EXTT8=
EXTT9=
EXTT10=
EXTT11=
PLAYORDER=
